<?xml version="1.0" encoding="utf-8"?>
<!-- Generator: Fusion 360, Shaper Origin Export Add-In, Version 1.6.10  -->
<svg xmlns="http://www.w3.org/2000/svg" xmlns:xlink="http://www.w3.org/1999/xlink" xmlns:shaper="http://www.shapertools.com/namespaces/shaper" shaper:fusionaddin="version:1.6.10" width="11.8cm" height="7.4cm" version="1.1" x="0cm" y="0cm" viewBox="0 0 11.8 7.4" enable-background="new 0 0 11.8 7.4" xml:space="preserve"><path d="M-11.6,-7.4 L-0.2,-7.4 A0.2,0.2 270 0,1 0,-7.2 L0,-0.2 A0.2,0.2 0 0,1 -0.2,-0 L-11.6,0 A0.2,0.2 90 0,1 -11.8,-0.2 L-11.8,-7.2 A0.2,0.2 180 0,1 -11.6,-7.4z" transform="matrix(1,0,0,-1,11.8,0)" stroke="rgb(100,100,100)" stroke-width="0.0010cm" stroke-linecap="round" stroke-linejoin="round" fill="none" /><path d="M-0.45,-7 L-2.45,-7 -2.45,-5 -0.45,-5 -0.45,-7z" transform="matrix(1,0,0,-1,11.8,0)" stroke="rgb(100,100,100)" stroke-width="0.0010cm" stroke-linecap="round" stroke-linejoin="round" fill="none" /><path d="M-2.675,-7 L-4.675,-7 -4.675,-5 -2.675,-5 -2.675,-7z" transform="matrix(1,0,0,-1,11.8,0)" stroke="rgb(100,100,100)" stroke-width="0.0010cm" stroke-linecap="round" stroke-linejoin="round" fill="none" /><path d="M-4.9,-7 L-6.9,-7 -6.9,-5 -4.9,-5 -4.9,-7z" transform="matrix(1,0,0,-1,11.8,0)" stroke="rgb(100,100,100)" stroke-width="0.0010cm" stroke-linecap="round" stroke-linejoin="round" fill="none" /><path d="M-7.125,-7 L-9.125,-7 -9.125,-5 -7.125,-5 -7.125,-7z" transform="matrix(1,0,0,-1,11.8,0)" stroke="rgb(100,100,100)" stroke-width="0.0010cm" stroke-linecap="round" stroke-linejoin="round" fill="none" /><path d="M-9.35,-7 L-11.35,-7 -11.35,-5 -9.35,-5 -9.35,-7z" transform="matrix(1,0,0,-1,11.8,0)" stroke="rgb(100,100,100)" stroke-width="0.0010cm" stroke-linecap="round" stroke-linejoin="round" fill="none" /><path d="M-0.45,-4.7 L-2.45,-4.7 -2.45,-2.7 -0.45,-2.7 -0.45,-4.7z" transform="matrix(1,0,0,-1,11.8,0)" stroke="rgb(100,100,100)" stroke-width="0.0010cm" stroke-linecap="round" stroke-linejoin="round" fill="none" /><path d="M-2.675,-4.7 L-4.675,-4.7 -4.675,-2.7 -2.675,-2.7 -2.675,-4.7z" transform="matrix(1,0,0,-1,11.8,0)" stroke="rgb(100,100,100)" stroke-width="0.0010cm" stroke-linecap="round" stroke-linejoin="round" fill="none" /><path d="M-4.9,-4.7 L-6.9,-4.7 -6.9,-2.7 -4.9,-2.7 -4.9,-4.7z" transform="matrix(1,0,0,-1,11.8,0)" stroke="rgb(100,100,100)" stroke-width="0.0010cm" stroke-linecap="round" stroke-linejoin="round" fill="none" /><path d="M-7.125,-4.7 L-9.125,-4.7 -9.125,-2.7 -7.125,-2.7 -7.125,-4.7z" transform="matrix(1,0,0,-1,11.8,0)" stroke="rgb(100,100,100)" stroke-width="0.0010cm" stroke-linecap="round" stroke-linejoin="round" fill="none" /><path d="M-9.35,-4.7 L-11.35,-4.7 -11.35,-2.7 -9.35,-2.7 -9.35,-4.7z" transform="matrix(1,0,0,-1,11.8,0)" stroke="rgb(100,100,100)" stroke-width="0.0010cm" stroke-linecap="round" stroke-linejoin="round" fill="none" /><path d="M-0.45,-2.4 L-2.45,-2.4 -2.45,-0.4 -0.45,-0.4 -0.45,-2.4z" transform="matrix(1,0,0,-1,11.8,0)" stroke="rgb(100,100,100)" stroke-width="0.0010cm" stroke-linecap="round" stroke-linejoin="round" fill="none" /><path d="M-2.675,-2.4 L-4.675,-2.4 -4.675,-0.4 -2.675,-0.4 -2.675,-2.4z" transform="matrix(1,0,0,-1,11.8,0)" stroke="rgb(100,100,100)" stroke-width="0.0010cm" stroke-linecap="round" stroke-linejoin="round" fill="none" /><path d="M-4.9,-2.4 L-6.9,-2.4 -6.9,-0.4 -4.9,-0.4 -4.9,-2.4z" transform="matrix(1,0,0,-1,11.8,0)" stroke="rgb(100,100,100)" stroke-width="0.0010cm" stroke-linecap="round" stroke-linejoin="round" fill="none" /><path d="M-7.125,-2.4 L-9.125,-2.4 -9.125,-0.4 -7.125,-0.4 -7.125,-2.4z" transform="matrix(1,0,0,-1,11.8,0)" stroke="rgb(100,100,100)" stroke-width="0.0010cm" stroke-linecap="round" stroke-linejoin="round" fill="none" /><path d="M-9.35,-2.4 L-11.35,-2.4 -11.35,-0.4 -9.35,-0.4 -9.35,-2.4z" transform="matrix(1,0,0,-1,11.8,0)" stroke="rgb(100,100,100)" stroke-width="0.0010cm" stroke-linecap="round" stroke-linejoin="round" fill="none" /></svg>